<svg width="358" height="122" viewBox="0 0 358 122" fill="none" xmlns="http://www.w3.org/2000/svg">
<g filter="url(#filter0_d_12_5)">
<path d="M41.032 18.296C41.48 17.512 42.136 16.872 43 16.376C43.864 15.88 44.848 15.632 45.952 15.632C47.136 15.632 48.2 15.912 49.144 16.472C50.088 17.032 50.832 17.824 51.376 18.848C51.92 19.856 52.192 21.032 52.192 22.376C52.192 23.704 51.92 24.888 51.376 25.928C50.832 26.968 50.08 27.776 49.12 28.352C48.176 28.928 47.12 29.216 45.952 29.216C44.816 29.216 43.816 28.968 42.952 28.472C42.104 27.976 41.464 27.344 41.032 26.576V29H38.848V11.24H41.032V18.296ZM49.96 22.376C49.96 21.384 49.76 20.52 49.36 19.784C48.96 19.048 48.416 18.488 47.728 18.104C47.056 17.72 46.312 17.528 45.496 17.528C44.696 17.528 43.952 17.728 43.264 18.128C42.592 18.512 42.048 19.08 41.632 19.832C41.232 20.568 41.032 21.424 41.032 22.4C41.032 23.392 41.232 24.264 41.632 25.016C42.048 25.752 42.592 26.32 43.264 26.72C43.952 27.104 44.696 27.296 45.496 27.296C46.312 27.296 47.056 27.104 47.728 26.72C48.416 26.32 48.96 25.752 49.36 25.016C49.76 24.264 49.96 23.384 49.96 22.376ZM66.3948 15.848L58.4748 35.192H56.2188L58.8108 28.856L53.5068 15.848H55.9308L60.0588 26.504L64.1388 15.848H66.3948ZM70.7742 18.272C71.2062 17.52 71.8462 16.896 72.6942 16.4C73.5582 15.888 74.5582 15.632 75.6942 15.632C76.8622 15.632 77.9182 15.912 78.8622 16.472C79.8222 17.032 80.5742 17.824 81.1182 18.848C81.6622 19.856 81.9342 21.032 81.9342 22.376C81.9342 23.704 81.6622 24.888 81.1182 25.928C80.5742 26.968 79.8222 27.776 78.8622 28.352C77.9182 28.928 76.8622 29.216 75.6942 29.216C74.5742 29.216 73.5822 28.968 72.7182 28.472C71.8702 27.96 71.2222 27.328 70.7742 26.576V35.24H68.5902V15.848H70.7742V18.272ZM79.7022 22.376C79.7022 21.384 79.5022 20.52 79.1022 19.784C78.7022 19.048 78.1582 18.488 77.4702 18.104C76.7982 17.72 76.0542 17.528 75.2382 17.528C74.4382 17.528 73.6942 17.728 73.0062 18.128C72.3342 18.512 71.7902 19.08 71.3742 19.832C70.9742 20.568 70.7742 21.424 70.7742 22.4C70.7742 23.392 70.9742 24.264 71.3742 25.016C71.7902 25.752 72.3342 26.32 73.0062 26.72C73.6942 27.104 74.4382 27.296 75.2382 27.296C76.0542 27.296 76.7982 27.104 77.4702 26.72C78.1582 26.32 78.7022 25.752 79.1022 25.016C79.5022 24.264 79.7022 23.384 79.7022 22.376ZM83.9929 22.376C83.9929 21.032 84.2649 19.856 84.8089 18.848C85.3529 17.824 86.0969 17.032 87.0409 16.472C88.0009 15.912 89.0649 15.632 90.2329 15.632C91.3849 15.632 92.3849 15.88 93.2329 16.376C94.0809 16.872 94.7129 17.496 95.1289 18.248V15.848H97.3369V29H95.1289V26.552C94.6969 27.32 94.0489 27.96 93.1849 28.472C92.3369 28.968 91.3449 29.216 90.2089 29.216C89.0409 29.216 87.9849 28.928 87.0409 28.352C86.0969 27.776 85.3529 26.968 84.8089 25.928C84.2649 24.888 83.9929 23.704 83.9929 22.376ZM95.1289 22.4C95.1289 21.408 94.9289 20.544 94.5289 19.808C94.1289 19.072 93.5849 18.512 92.8969 18.128C92.2249 17.728 91.4809 17.528 90.6649 17.528C89.8489 17.528 89.1049 17.72 88.4329 18.104C87.7609 18.488 87.2249 19.048 86.8249 19.784C86.4249 20.52 86.2249 21.384 86.2249 22.376C86.2249 23.384 86.4249 24.264 86.8249 25.016C87.2249 25.752 87.7609 26.32 88.4329 26.72C89.1049 27.104 89.8489 27.296 90.6649 27.296C91.4809 27.296 92.2249 27.104 92.8969 26.72C93.5849 26.32 94.1289 25.752 94.5289 25.016C94.9289 24.264 95.1289 23.392 95.1289 22.4ZM105.684 29.216C104.676 29.216 103.772 29.048 102.972 28.712C102.172 28.36 101.54 27.88 101.076 27.272C100.612 26.648 100.356 25.936 100.308 25.136H102.564C102.628 25.792 102.932 26.328 103.476 26.744C104.036 27.16 104.764 27.368 105.66 27.368C106.492 27.368 107.148 27.184 107.628 26.816C108.108 26.448 108.348 25.984 108.348 25.424C108.348 24.848 108.092 24.424 107.58 24.152C107.068 23.864 106.276 23.584 105.204 23.312C104.228 23.056 103.428 22.8 102.804 22.544C102.196 22.272 101.668 21.88 101.22 21.368C100.788 20.84 100.572 20.152 100.572 19.304C100.572 18.632 100.772 18.016 101.172 17.456C101.572 16.896 102.14 16.456 102.876 16.136C103.612 15.8 104.452 15.632 105.396 15.632C106.852 15.632 108.028 16 108.924 16.736C109.82 17.472 110.3 18.48 110.364 19.76H108.18C108.132 19.072 107.852 18.52 107.34 18.104C106.844 17.688 106.172 17.48 105.324 17.48C104.54 17.48 103.916 17.648 103.452 17.984C102.988 18.32 102.756 18.76 102.756 19.304C102.756 19.736 102.892 20.096 103.164 20.384C103.452 20.656 103.804 20.88 104.22 21.056C104.652 21.216 105.244 21.4 105.996 21.608C106.94 21.864 107.708 22.12 108.3 22.376C108.892 22.616 109.396 22.984 109.812 23.48C110.244 23.976 110.468 24.624 110.484 25.424C110.484 26.144 110.284 26.792 109.884 27.368C109.484 27.944 108.916 28.4 108.18 28.736C107.46 29.056 106.628 29.216 105.684 29.216ZM118.223 29.216C117.215 29.216 116.311 29.048 115.511 28.712C114.711 28.36 114.079 27.88 113.615 27.272C113.151 26.648 112.895 25.936 112.847 25.136H115.103C115.167 25.792 115.471 26.328 116.015 26.744C116.575 27.16 117.303 27.368 118.199 27.368C119.031 27.368 119.687 27.184 120.167 26.816C120.647 26.448 120.887 25.984 120.887 25.424C120.887 24.848 120.631 24.424 120.119 24.152C119.607 23.864 118.815 23.584 117.743 23.312C116.767 23.056 115.967 22.8 115.343 22.544C114.735 22.272 114.207 21.88 113.759 21.368C113.327 20.84 113.111 20.152 113.111 19.304C113.111 18.632 113.311 18.016 113.711 17.456C114.111 16.896 114.679 16.456 115.415 16.136C116.151 15.8 116.991 15.632 117.935 15.632C119.391 15.632 120.567 16 121.463 16.736C122.359 17.472 122.839 18.48 122.903 19.76H120.719C120.671 19.072 120.391 18.52 119.879 18.104C119.383 17.688 118.711 17.48 117.863 17.48C117.079 17.48 116.455 17.648 115.991 17.984C115.527 18.32 115.295 18.76 115.295 19.304C115.295 19.736 115.431 20.096 115.703 20.384C115.991 20.656 116.343 20.88 116.759 21.056C117.191 21.216 117.783 21.4 118.535 21.608C119.479 21.864 120.247 22.12 120.839 22.376C121.431 22.616 121.935 22.984 122.351 23.48C122.783 23.976 123.007 24.624 123.023 25.424C123.023 26.144 122.823 26.792 122.423 27.368C122.023 27.944 121.455 28.4 120.719 28.736C119.999 29.056 119.167 29.216 118.223 29.216ZM138.106 21.92C138.106 22.336 138.082 22.776 138.034 23.24H127.522C127.602 24.536 128.042 25.552 128.842 26.288C129.658 27.008 130.642 27.368 131.794 27.368C132.738 27.368 133.522 27.152 134.146 26.72C134.786 26.272 135.234 25.68 135.49 24.944H137.842C137.49 26.208 136.786 27.24 135.73 28.04C134.674 28.824 133.362 29.216 131.794 29.216C130.546 29.216 129.426 28.936 128.434 28.376C127.458 27.816 126.69 27.024 126.13 26C125.57 24.96 125.29 23.76 125.29 22.4C125.29 21.04 125.562 19.848 126.106 18.824C126.65 17.8 127.41 17.016 128.386 16.472C129.378 15.912 130.514 15.632 131.794 15.632C133.042 15.632 134.146 15.904 135.106 16.448C136.066 16.992 136.802 17.744 137.314 18.704C137.842 19.648 138.106 20.72 138.106 21.92ZM135.85 21.464C135.85 20.632 135.666 19.92 135.298 19.328C134.93 18.72 134.426 18.264 133.786 17.96C133.162 17.64 132.466 17.48 131.698 17.48C130.594 17.48 129.65 17.832 128.866 18.536C128.098 19.24 127.658 20.216 127.546 21.464H135.85ZM145.645 29.216C144.637 29.216 143.733 29.048 142.933 28.712C142.133 28.36 141.501 27.88 141.037 27.272C140.573 26.648 140.317 25.936 140.269 25.136H142.525C142.589 25.792 142.893 26.328 143.437 26.744C143.997 27.16 144.725 27.368 145.621 27.368C146.453 27.368 147.109 27.184 147.589 26.816C148.069 26.448 148.309 25.984 148.309 25.424C148.309 24.848 148.053 24.424 147.541 24.152C147.029 23.864 146.237 23.584 145.165 23.312C144.189 23.056 143.389 22.8 142.765 22.544C142.157 22.272 141.629 21.88 141.181 21.368C140.749 20.84 140.533 20.152 140.533 19.304C140.533 18.632 140.733 18.016 141.133 17.456C141.533 16.896 142.101 16.456 142.837 16.136C143.573 15.8 144.413 15.632 145.357 15.632C146.813 15.632 147.989 16 148.885 16.736C149.781 17.472 150.261 18.48 150.325 19.76H148.141C148.093 19.072 147.813 18.52 147.301 18.104C146.805 17.688 146.133 17.48 145.285 17.48C144.501 17.48 143.877 17.648 143.413 17.984C142.949 18.32 142.717 18.76 142.717 19.304C142.717 19.736 142.853 20.096 143.125 20.384C143.413 20.656 143.765 20.88 144.181 21.056C144.613 21.216 145.205 21.4 145.957 21.608C146.901 21.864 147.669 22.12 148.261 22.376C148.853 22.616 149.357 22.984 149.773 23.48C150.205 23.976 150.429 24.624 150.445 25.424C150.445 26.144 150.245 26.792 149.845 27.368C149.445 27.944 148.877 28.4 148.141 28.736C147.421 29.056 146.589 29.216 145.645 29.216ZM175.742 15.608C176.766 15.608 177.678 15.824 178.478 16.256C179.278 16.672 179.91 17.304 180.374 18.152C180.838 19 181.07 20.032 181.07 21.248V29H178.91V21.56C178.91 20.248 178.582 19.248 177.926 18.56C177.286 17.856 176.414 17.504 175.31 17.504C174.174 17.504 173.27 17.872 172.598 18.608C171.926 19.328 171.59 20.376 171.59 21.752V29H169.43V21.56C169.43 20.248 169.102 19.248 168.446 18.56C167.806 17.856 166.934 17.504 165.83 17.504C164.694 17.504 163.79 17.872 163.118 18.608C162.446 19.328 162.11 20.376 162.11 21.752V29H159.926V15.848H162.11V17.744C162.542 17.056 163.118 16.528 163.838 16.16C164.574 15.792 165.382 15.608 166.262 15.608C167.366 15.608 168.342 15.856 169.19 16.352C170.038 16.848 170.67 17.576 171.086 18.536C171.454 17.608 172.062 16.888 172.91 16.376C173.758 15.864 174.702 15.608 175.742 15.608ZM190.389 29.216C189.157 29.216 188.037 28.936 187.029 28.376C186.037 27.816 185.253 27.024 184.677 26C184.117 24.96 183.837 23.76 183.837 22.4C183.837 21.056 184.125 19.872 184.701 18.848C185.293 17.808 186.093 17.016 187.101 16.472C188.109 15.912 189.237 15.632 190.485 15.632C191.733 15.632 192.861 15.912 193.869 16.472C194.877 17.016 195.669 17.8 196.245 18.824C196.837 19.848 197.133 21.04 197.133 22.4C197.133 23.76 196.829 24.96 196.221 26C195.629 27.024 194.821 27.816 193.797 28.376C192.773 28.936 191.637 29.216 190.389 29.216ZM190.389 27.296C191.173 27.296 191.909 27.112 192.597 26.744C193.285 26.376 193.837 25.824 194.253 25.088C194.685 24.352 194.901 23.456 194.901 22.4C194.901 21.344 194.693 20.448 194.277 19.712C193.861 18.976 193.317 18.432 192.645 18.08C191.973 17.712 191.245 17.528 190.461 17.528C189.661 17.528 188.925 17.712 188.253 18.08C187.597 18.432 187.069 18.976 186.669 19.712C186.269 20.448 186.069 21.344 186.069 22.4C186.069 23.472 186.261 24.376 186.645 25.112C187.045 25.848 187.573 26.4 188.229 26.768C188.885 27.12 189.605 27.296 190.389 27.296ZM204.66 29.216C203.652 29.216 202.748 29.048 201.948 28.712C201.148 28.36 200.516 27.88 200.052 27.272C199.588 26.648 199.332 25.936 199.284 25.136H201.54C201.604 25.792 201.908 26.328 202.452 26.744C203.012 27.16 203.74 27.368 204.636 27.368C205.468 27.368 206.124 27.184 206.604 26.816C207.084 26.448 207.324 25.984 207.324 25.424C207.324 24.848 207.068 24.424 206.556 24.152C206.044 23.864 205.252 23.584 204.18 23.312C203.204 23.056 202.404 22.8 201.78 22.544C201.172 22.272 200.644 21.88 200.196 21.368C199.764 20.84 199.548 20.152 199.548 19.304C199.548 18.632 199.748 18.016 200.148 17.456C200.548 16.896 201.116 16.456 201.852 16.136C202.588 15.8 203.428 15.632 204.372 15.632C205.828 15.632 207.004 16 207.9 16.736C208.796 17.472 209.276 18.48 209.34 19.76H207.156C207.108 19.072 206.828 18.52 206.316 18.104C205.82 17.688 205.148 17.48 204.3 17.48C203.516 17.48 202.892 17.648 202.428 17.984C201.964 18.32 201.732 18.76 201.732 19.304C201.732 19.736 201.868 20.096 202.14 20.384C202.428 20.656 202.78 20.88 203.196 21.056C203.628 21.216 204.22 21.4 204.972 21.608C205.916 21.864 206.684 22.12 207.276 22.376C207.868 22.616 208.372 22.984 208.788 23.48C209.22 23.976 209.444 24.624 209.46 25.424C209.46 26.144 209.26 26.792 208.86 27.368C208.46 27.944 207.892 28.4 207.156 28.736C206.436 29.056 205.604 29.216 204.66 29.216ZM215.207 17.648V25.4C215.207 26.04 215.343 26.496 215.615 26.768C215.887 27.024 216.359 27.152 217.031 27.152H218.639V29H216.671C215.455 29 214.543 28.72 213.935 28.16C213.327 27.6 213.023 26.68 213.023 25.4V17.648H211.319V15.848H213.023V12.536H215.207V15.848H218.639V17.648H215.207ZM226.868 22.376C226.868 21.032 227.14 19.856 227.684 18.848C228.228 17.824 228.972 17.032 229.916 16.472C230.876 15.912 231.94 15.632 233.108 15.632C234.26 15.632 235.26 15.88 236.108 16.376C236.956 16.872 237.588 17.496 238.004 18.248V15.848H240.212V29H238.004V26.552C237.572 27.32 236.924 27.96 236.06 28.472C235.212 28.968 234.22 29.216 233.084 29.216C231.916 29.216 230.86 28.928 229.916 28.352C228.972 27.776 228.228 26.968 227.684 25.928C227.14 24.888 226.868 23.704 226.868 22.376ZM238.004 22.4C238.004 21.408 237.804 20.544 237.404 19.808C237.004 19.072 236.46 18.512 235.772 18.128C235.1 17.728 234.356 17.528 233.54 17.528C232.724 17.528 231.98 17.72 231.308 18.104C230.636 18.488 230.1 19.048 229.7 19.784C229.3 20.52 229.1 21.384 229.1 22.376C229.1 23.384 229.3 24.264 229.7 25.016C230.1 25.752 230.636 26.32 231.308 26.72C231.98 27.104 232.724 27.296 233.54 27.296C234.356 27.296 235.1 27.104 235.772 26.72C236.46 26.32 237.004 25.752 237.404 25.016C237.804 24.264 238.004 23.392 238.004 22.4ZM250.311 15.608C251.911 15.608 253.207 16.096 254.199 17.072C255.191 18.032 255.687 19.424 255.687 21.248V29H253.527V21.56C253.527 20.248 253.199 19.248 252.543 18.56C251.887 17.856 250.991 17.504 249.855 17.504C248.703 17.504 247.783 17.864 247.095 18.584C246.423 19.304 246.087 20.352 246.087 21.728V29H243.903V15.848H246.087V17.72C246.519 17.048 247.103 16.528 247.839 16.16C248.591 15.792 249.415 15.608 250.311 15.608ZM261.918 17.648V25.4C261.918 26.04 262.054 26.496 262.326 26.768C262.598 27.024 263.07 27.152 263.742 27.152H265.35V29H263.382C262.166 29 261.254 28.72 260.646 28.16C260.038 27.6 259.734 26.68 259.734 25.4V17.648H258.03V15.848H259.734V12.536H261.918V15.848H265.35V17.648H261.918ZM269.124 13.712C268.708 13.712 268.356 13.568 268.068 13.28C267.78 12.992 267.636 12.64 267.636 12.224C267.636 11.808 267.78 11.456 268.068 11.168C268.356 10.88 268.708 10.736 269.124 10.736C269.524 10.736 269.86 10.88 270.132 11.168C270.42 11.456 270.564 11.808 270.564 12.224C270.564 12.64 270.42 12.992 270.132 13.28C269.86 13.568 269.524 13.712 269.124 13.712ZM270.18 15.848V29H267.996V15.848H270.18ZM273.087 22.4C273.087 21.04 273.359 19.856 273.903 18.848C274.447 17.824 275.199 17.032 276.159 16.472C277.135 15.912 278.247 15.632 279.495 15.632C281.111 15.632 282.439 16.024 283.479 16.808C284.535 17.592 285.231 18.68 285.567 20.072H283.215C282.991 19.272 282.551 18.64 281.895 18.176C281.255 17.712 280.455 17.48 279.495 17.48C278.247 17.48 277.239 17.912 276.471 18.776C275.703 19.624 275.319 20.832 275.319 22.4C275.319 23.984 275.703 25.208 276.471 26.072C277.239 26.936 278.247 27.368 279.495 27.368C280.455 27.368 281.255 27.144 281.895 26.696C282.535 26.248 282.975 25.608 283.215 24.776H285.567C285.215 26.12 284.511 27.2 283.455 28.016C282.399 28.816 281.079 29.216 279.495 29.216C278.247 29.216 277.135 28.936 276.159 28.376C275.199 27.816 274.447 27.024 273.903 26C273.359 24.976 273.087 23.776 273.087 22.4ZM295.009 15.608C296.001 15.608 296.897 15.824 297.697 16.256C298.497 16.672 299.121 17.304 299.569 18.152C300.033 19 300.265 20.032 300.265 21.248V29H298.105V21.56C298.105 20.248 297.777 19.248 297.121 18.56C296.465 17.856 295.569 17.504 294.433 17.504C293.281 17.504 292.361 17.864 291.673 18.584C291.001 19.304 290.665 20.352 290.665 21.728V29H288.481V11.24H290.665V17.72C291.097 17.048 291.689 16.528 292.441 16.16C293.209 15.792 294.065 15.608 295.009 15.608ZM315.832 21.92C315.832 22.336 315.808 22.776 315.76 23.24H305.248C305.328 24.536 305.768 25.552 306.568 26.288C307.384 27.008 308.368 27.368 309.52 27.368C310.464 27.368 311.248 27.152 311.872 26.72C312.512 26.272 312.96 25.68 313.216 24.944H315.568C315.216 26.208 314.512 27.24 313.456 28.04C312.4 28.824 311.088 29.216 309.52 29.216C308.272 29.216 307.152 28.936 306.16 28.376C305.184 27.816 304.416 27.024 303.856 26C303.296 24.96 303.016 23.76 303.016 22.4C303.016 21.04 303.288 19.848 303.832 18.824C304.376 17.8 305.136 17.016 306.112 16.472C307.104 15.912 308.24 15.632 309.52 15.632C310.768 15.632 311.872 15.904 312.832 16.448C313.792 16.992 314.528 17.744 315.04 18.704C315.568 19.648 315.832 20.72 315.832 21.92ZM313.576 21.464C313.576 20.632 313.392 19.92 313.024 19.328C312.656 18.72 312.152 18.264 311.512 17.96C310.888 17.64 310.192 17.48 309.424 17.48C308.32 17.48 307.376 17.832 306.592 18.536C305.824 19.24 305.384 20.216 305.272 21.464H313.576ZM317.899 22.376C317.899 21.032 318.171 19.856 318.715 18.848C319.259 17.824 320.003 17.032 320.947 16.472C321.907 15.912 322.971 15.632 324.139 15.632C325.291 15.632 326.291 15.88 327.139 16.376C327.987 16.872 328.619 17.496 329.035 18.248V15.848H331.243V29H329.035V26.552C328.603 27.32 327.955 27.96 327.091 28.472C326.243 28.968 325.251 29.216 324.115 29.216C322.947 29.216 321.891 28.928 320.947 28.352C320.003 27.776 319.259 26.968 318.715 25.928C318.171 24.888 317.899 23.704 317.899 22.376ZM329.035 22.4C329.035 21.408 328.835 20.544 328.435 19.808C328.035 19.072 327.491 18.512 326.803 18.128C326.131 17.728 325.387 17.528 324.571 17.528C323.755 17.528 323.011 17.72 322.339 18.104C321.667 18.488 321.131 19.048 320.731 19.784C320.331 20.52 320.131 21.384 320.131 22.376C320.131 23.384 320.331 24.264 320.731 25.016C321.131 25.752 321.667 26.32 322.339 26.72C323.011 27.104 323.755 27.296 324.571 27.296C325.387 27.296 326.131 27.104 326.803 26.72C327.491 26.32 328.035 25.752 328.435 25.016C328.835 24.264 329.035 23.392 329.035 22.4ZM337.598 17.648V25.4C337.598 26.04 337.734 26.496 338.006 26.768C338.278 27.024 338.75 27.152 339.422 27.152H341.03V29H339.062C337.846 29 336.934 28.72 336.326 28.16C335.718 27.6 335.414 26.68 335.414 25.4V17.648H333.71V15.848H335.414V12.536H337.598V15.848H341.03V17.648H337.598ZM348.332 29.216C347.324 29.216 346.42 29.048 345.62 28.712C344.82 28.36 344.188 27.88 343.724 27.272C343.26 26.648 343.004 25.936 342.956 25.136H345.212C345.276 25.792 345.58 26.328 346.124 26.744C346.684 27.16 347.412 27.368 348.308 27.368C349.14 27.368 349.796 27.184 350.276 26.816C350.756 26.448 350.996 25.984 350.996 25.424C350.996 24.848 350.74 24.424 350.228 24.152C349.716 23.864 348.924 23.584 347.852 23.312C346.876 23.056 346.076 22.8 345.452 22.544C344.844 22.272 344.316 21.88 343.868 21.368C343.436 20.84 343.22 20.152 343.22 19.304C343.22 18.632 343.42 18.016 343.82 17.456C344.22 16.896 344.788 16.456 345.524 16.136C346.26 15.8 347.1 15.632 348.044 15.632C349.5 15.632 350.676 16 351.572 16.736C352.468 17.472 352.948 18.48 353.012 19.76H350.828C350.78 19.072 350.5 18.52 349.988 18.104C349.492 17.688 348.82 17.48 347.972 17.48C347.188 17.48 346.564 17.648 346.1 17.984C345.636 18.32 345.404 18.76 345.404 19.304C345.404 19.736 345.54 20.096 345.812 20.384C346.1 20.656 346.452 20.88 346.868 21.056C347.3 21.216 347.892 21.4 348.644 21.608C349.588 21.864 350.356 22.12 350.948 22.376C351.54 22.616 352.044 22.984 352.46 23.48C352.892 23.976 353.116 24.624 353.132 25.424C353.132 26.144 352.932 26.792 352.532 27.368C352.132 27.944 351.564 28.4 350.828 28.736C350.108 29.056 349.276 29.216 348.332 29.216ZM38.032 58.376C38.032 57.032 38.304 55.856 38.848 54.848C39.392 53.824 40.136 53.032 41.08 52.472C42.04 51.912 43.104 51.632 44.272 51.632C45.424 51.632 46.424 51.88 47.272 52.376C48.12 52.872 48.752 53.496 49.168 54.248V51.848H51.376V65H49.168V62.552C48.736 63.32 48.088 63.96 47.224 64.472C46.376 64.968 45.384 65.216 44.248 65.216C43.08 65.216 42.024 64.928 41.08 64.352C40.136 63.776 39.392 62.968 38.848 61.928C38.304 60.888 38.032 59.704 38.032 58.376ZM49.168 58.4C49.168 57.408 48.968 56.544 48.568 55.808C48.168 55.072 47.624 54.512 46.936 54.128C46.264 53.728 45.52 53.528 44.704 53.528C43.888 53.528 43.144 53.72 42.472 54.104C41.8 54.488 41.264 55.048 40.864 55.784C40.464 56.52 40.264 57.384 40.264 58.376C40.264 59.384 40.464 60.264 40.864 61.016C41.264 61.752 41.8 62.32 42.472 62.72C43.144 63.104 43.888 63.296 44.704 63.296C45.52 63.296 46.264 63.104 46.936 62.72C47.624 62.32 48.168 61.752 48.568 61.016C48.968 60.264 49.168 59.392 49.168 58.4ZM54.2508 58.4C54.2508 57.04 54.5228 55.856 55.0668 54.848C55.6108 53.824 56.3628 53.032 57.3228 52.472C58.2988 51.912 59.4108 51.632 60.6588 51.632C62.2748 51.632 63.6028 52.024 64.6428 52.808C65.6988 53.592 66.3948 54.68 66.7308 56.072H64.3788C64.1548 55.272 63.7148 54.64 63.0588 54.176C62.4188 53.712 61.6188 53.48 60.6588 53.48C59.4108 53.48 58.4028 53.912 57.6348 54.776C56.8668 55.624 56.4828 56.832 56.4828 58.4C56.4828 59.984 56.8668 61.208 57.6348 62.072C58.4028 62.936 59.4108 63.368 60.6588 63.368C61.6188 63.368 62.4188 63.144 63.0588 62.696C63.6988 62.248 64.1388 61.608 64.3788 60.776H66.7308C66.3788 62.12 65.6748 63.2 64.6188 64.016C63.5628 64.816 62.2428 65.216 60.6588 65.216C59.4108 65.216 58.2988 64.936 57.3228 64.376C56.3628 63.816 55.6108 63.024 55.0668 62C54.5228 60.976 54.2508 59.776 54.2508 58.4ZM72.3089 53.648V61.4C72.3089 62.04 72.4449 62.496 72.7169 62.768C72.9889 63.024 73.4609 63.152 74.1329 63.152H75.7409V65H73.7729C72.5569 65 71.6449 64.72 71.0369 64.16C70.4289 63.6 70.1249 62.68 70.1249 61.4V53.648H68.4209V51.848H70.1249V48.536H72.3089V51.848H75.7409V53.648H72.3089ZM79.5151 49.712C79.0991 49.712 78.7471 49.568 78.4591 49.28C78.1711 48.992 78.0271 48.64 78.0271 48.224C78.0271 47.808 78.1711 47.456 78.4591 47.168C78.7471 46.88 79.0991 46.736 79.5151 46.736C79.9151 46.736 80.2511 46.88 80.5231 47.168C80.8111 47.456 80.9551 47.808 80.9551 48.224C80.9551 48.64 80.8111 48.992 80.5231 49.28C80.2511 49.568 79.9151 49.712 79.5151 49.712ZM80.5711 51.848V65H78.3871V51.848H80.5711ZM89.1893 62.984L93.2693 51.848H95.5973L90.4373 65H87.8933L82.7333 51.848H85.0853L89.1893 62.984ZM109.746 57.92C109.746 58.336 109.722 58.776 109.674 59.24H99.1624C99.2424 60.536 99.6824 61.552 100.482 62.288C101.298 63.008 102.282 63.368 103.434 63.368C104.378 63.368 105.162 63.152 105.786 62.72C106.426 62.272 106.874 61.68 107.13 60.944H109.482C109.13 62.208 108.426 63.24 107.37 64.04C106.314 64.824 105.002 65.216 103.434 65.216C102.186 65.216 101.066 64.936 100.074 64.376C99.0984 63.816 98.3304 63.024 97.7704 62C97.2104 60.96 96.9304 59.76 96.9304 58.4C96.9304 57.04 97.2024 55.848 97.7464 54.824C98.2904 53.8 99.0504 53.016 100.026 52.472C101.018 51.912 102.154 51.632 103.434 51.632C104.682 51.632 105.786 51.904 106.746 52.448C107.706 52.992 108.442 53.744 108.954 54.704C109.482 55.648 109.746 56.72 109.746 57.92ZM107.49 57.464C107.49 56.632 107.306 55.92 106.938 55.328C106.57 54.72 106.066 54.264 105.426 53.96C104.802 53.64 104.106 53.48 103.338 53.48C102.234 53.48 101.29 53.832 100.506 54.536C99.7384 55.24 99.2984 56.216 99.1864 57.464H107.49ZM118.212 58.376C118.212 57.032 118.484 55.856 119.028 54.848C119.572 53.824 120.316 53.032 121.26 52.472C122.22 51.912 123.292 51.632 124.476 51.632C125.5 51.632 126.452 51.872 127.332 52.352C128.212 52.816 128.884 53.432 129.348 54.2V47.24H131.556V65H129.348V62.528C128.916 63.312 128.276 63.96 127.428 64.472C126.58 64.968 125.588 65.216 124.452 65.216C123.284 65.216 122.22 64.928 121.26 64.352C120.316 63.776 119.572 62.968 119.028 61.928C118.484 60.888 118.212 59.704 118.212 58.376ZM129.348 58.4C129.348 57.408 129.148 56.544 128.748 55.808C128.348 55.072 127.804 54.512 127.116 54.128C126.444 53.728 125.7 53.528 124.884 53.528C124.068 53.528 123.324 53.72 122.652 54.104C121.98 54.488 121.444 55.048 121.044 55.784C120.644 56.52 120.444 57.384 120.444 58.376C120.444 59.384 120.644 60.264 121.044 61.016C121.444 61.752 121.98 62.32 122.652 62.72C123.324 63.104 124.068 63.296 124.884 63.296C125.7 63.296 126.444 63.104 127.116 62.72C127.804 62.32 128.348 61.752 128.748 61.016C129.148 60.264 129.348 59.392 129.348 58.4ZM147.246 57.92C147.246 58.336 147.222 58.776 147.174 59.24H136.662C136.742 60.536 137.182 61.552 137.982 62.288C138.798 63.008 139.782 63.368 140.934 63.368C141.878 63.368 142.662 63.152 143.286 62.72C143.926 62.272 144.374 61.68 144.63 60.944H146.982C146.63 62.208 145.926 63.24 144.87 64.04C143.814 64.824 142.502 65.216 140.934 65.216C139.686 65.216 138.566 64.936 137.574 64.376C136.598 63.816 135.83 63.024 135.27 62C134.71 60.96 134.43 59.76 134.43 58.4C134.43 57.04 134.702 55.848 135.246 54.824C135.79 53.8 136.55 53.016 137.526 52.472C138.518 51.912 139.654 51.632 140.934 51.632C142.182 51.632 143.286 51.904 144.246 52.448C145.206 52.992 145.942 53.744 146.454 54.704C146.982 55.648 147.246 56.72 147.246 57.92ZM144.99 57.464C144.99 56.632 144.806 55.92 144.438 55.328C144.07 54.72 143.566 54.264 142.926 53.96C142.302 53.64 141.606 53.48 140.838 53.48C139.734 53.48 138.79 53.832 138.006 54.536C137.238 55.24 136.798 56.216 136.686 57.464H144.99ZM155.025 62.984L159.105 51.848H161.433L156.273 65H153.729L148.569 51.848H150.921L155.025 62.984ZM175.582 57.92C175.582 58.336 175.558 58.776 175.51 59.24H164.998C165.078 60.536 165.518 61.552 166.318 62.288C167.134 63.008 168.118 63.368 169.27 63.368C170.214 63.368 170.998 63.152 171.622 62.72C172.262 62.272 172.71 61.68 172.966 60.944H175.318C174.966 62.208 174.262 63.24 173.206 64.04C172.15 64.824 170.838 65.216 169.27 65.216C168.022 65.216 166.902 64.936 165.91 64.376C164.934 63.816 164.166 63.024 163.606 62C163.046 60.96 162.766 59.76 162.766 58.4C162.766 57.04 163.038 55.848 163.582 54.824C164.126 53.8 164.886 53.016 165.862 52.472C166.854 51.912 167.99 51.632 169.27 51.632C170.518 51.632 171.622 51.904 172.582 52.448C173.542 52.992 174.278 53.744 174.79 54.704C175.318 55.648 175.582 56.72 175.582 57.92ZM173.326 57.464C173.326 56.632 173.142 55.92 172.774 55.328C172.406 54.72 171.902 54.264 171.262 53.96C170.638 53.64 169.942 53.48 169.174 53.48C168.07 53.48 167.126 53.832 166.342 54.536C165.574 55.24 165.134 56.216 165.022 57.464H173.326ZM180.649 47.24V65H178.465V47.24H180.649ZM190.107 65.216C188.875 65.216 187.755 64.936 186.747 64.376C185.755 63.816 184.971 63.024 184.395 62C183.835 60.96 183.555 59.76 183.555 58.4C183.555 57.056 183.843 55.872 184.419 54.848C185.011 53.808 185.811 53.016 186.819 52.472C187.827 51.912 188.955 51.632 190.203 51.632C191.451 51.632 192.579 51.912 193.587 52.472C194.595 53.016 195.387 53.8 195.963 54.824C196.555 55.848 196.851 57.04 196.851 58.4C196.851 59.76 196.547 60.96 195.939 62C195.347 63.024 194.539 63.816 193.515 64.376C192.491 64.936 191.355 65.216 190.107 65.216ZM190.107 63.296C190.891 63.296 191.627 63.112 192.315 62.744C193.003 62.376 193.555 61.824 193.971 61.088C194.403 60.352 194.619 59.456 194.619 58.4C194.619 57.344 194.411 56.448 193.995 55.712C193.579 54.976 193.035 54.432 192.363 54.08C191.691 53.712 190.963 53.528 190.179 53.528C189.379 53.528 188.643 53.712 187.971 54.08C187.315 54.432 186.787 54.976 186.387 55.712C185.987 56.448 185.787 57.344 185.787 58.4C185.787 59.472 185.979 60.376 186.363 61.112C186.763 61.848 187.291 62.4 187.947 62.768C188.603 63.12 189.323 63.296 190.107 63.296ZM201.907 54.272C202.339 53.52 202.979 52.896 203.827 52.4C204.691 51.888 205.691 51.632 206.827 51.632C207.995 51.632 209.051 51.912 209.995 52.472C210.955 53.032 211.707 53.824 212.251 54.848C212.795 55.856 213.067 57.032 213.067 58.376C213.067 59.704 212.795 60.888 212.251 61.928C211.707 62.968 210.955 63.776 209.995 64.352C209.051 64.928 207.995 65.216 206.827 65.216C205.707 65.216 204.715 64.968 203.851 64.472C203.003 63.96 202.355 63.328 201.907 62.576V71.24H199.723V51.848H201.907V54.272ZM210.835 58.376C210.835 57.384 210.635 56.52 210.235 55.784C209.835 55.048 209.291 54.488 208.603 54.104C207.931 53.72 207.187 53.528 206.371 53.528C205.571 53.528 204.827 53.728 204.139 54.128C203.467 54.512 202.923 55.08 202.507 55.832C202.107 56.568 201.907 57.424 201.907 58.4C201.907 59.392 202.107 60.264 202.507 61.016C202.923 61.752 203.467 62.32 204.139 62.72C204.827 63.104 205.571 63.296 206.371 63.296C207.187 63.296 207.931 63.104 208.603 62.72C209.291 62.32 209.835 61.752 210.235 61.016C210.635 60.264 210.835 59.384 210.835 58.376ZM231.758 51.608C232.782 51.608 233.694 51.824 234.494 52.256C235.294 52.672 235.926 53.304 236.39 54.152C236.854 55 237.086 56.032 237.086 57.248V65H234.926V57.56C234.926 56.248 234.598 55.248 233.942 54.56C233.302 53.856 232.43 53.504 231.326 53.504C230.19 53.504 229.286 53.872 228.614 54.608C227.942 55.328 227.606 56.376 227.606 57.752V65H225.446V57.56C225.446 56.248 225.118 55.248 224.462 54.56C223.822 53.856 222.95 53.504 221.846 53.504C220.71 53.504 219.806 53.872 219.134 54.608C218.462 55.328 218.126 56.376 218.126 57.752V65H215.942V51.848H218.126V53.744C218.558 53.056 219.134 52.528 219.854 52.16C220.59 51.792 221.398 51.608 222.278 51.608C223.382 51.608 224.358 51.856 225.206 52.352C226.054 52.848 226.686 53.576 227.102 54.536C227.47 53.608 228.078 52.888 228.926 52.376C229.774 51.864 230.718 51.608 231.758 51.608ZM252.668 57.92C252.668 58.336 252.644 58.776 252.596 59.24H242.084C242.164 60.536 242.604 61.552 243.404 62.288C244.22 63.008 245.204 63.368 246.356 63.368C247.3 63.368 248.084 63.152 248.708 62.72C249.348 62.272 249.796 61.68 250.052 60.944H252.404C252.052 62.208 251.348 63.24 250.292 64.04C249.236 64.824 247.924 65.216 246.356 65.216C245.108 65.216 243.988 64.936 242.996 64.376C242.02 63.816 241.252 63.024 240.692 62C240.132 60.96 239.852 59.76 239.852 58.4C239.852 57.04 240.124 55.848 240.668 54.824C241.212 53.8 241.972 53.016 242.948 52.472C243.94 51.912 245.076 51.632 246.356 51.632C247.604 51.632 248.708 51.904 249.668 52.448C250.628 52.992 251.364 53.744 251.876 54.704C252.404 55.648 252.668 56.72 252.668 57.92ZM250.412 57.464C250.412 56.632 250.228 55.92 249.86 55.328C249.492 54.72 248.988 54.264 248.348 53.96C247.724 53.64 247.028 53.48 246.26 53.48C245.156 53.48 244.212 53.832 243.428 54.536C242.66 55.24 242.22 56.216 242.108 57.464H250.412ZM261.959 51.608C263.559 51.608 264.855 52.096 265.847 53.072C266.839 54.032 267.335 55.424 267.335 57.248V65H265.175V57.56C265.175 56.248 264.847 55.248 264.191 54.56C263.535 53.856 262.639 53.504 261.503 53.504C260.351 53.504 259.431 53.864 258.743 54.584C258.071 55.304 257.735 56.352 257.735 57.728V65H255.551V51.848H257.735V53.72C258.167 53.048 258.751 52.528 259.487 52.16C260.239 51.792 261.063 51.608 261.959 51.608ZM273.567 53.648V61.4C273.567 62.04 273.703 62.496 273.975 62.768C274.247 63.024 274.719 63.152 275.391 63.152H276.999V65H275.031C273.815 65 272.903 64.72 272.295 64.16C271.687 63.6 271.383 62.68 271.383 61.4V53.648H269.679V51.848H271.383V48.536H273.567V51.848H276.999V53.648H273.567ZM39.976 85.712C39.56 85.712 39.208 85.568 38.92 85.28C38.632 84.992 38.488 84.64 38.488 84.224C38.488 83.808 38.632 83.456 38.92 83.168C39.208 82.88 39.56 82.736 39.976 82.736C40.376 82.736 40.712 82.88 40.984 83.168C41.272 83.456 41.416 83.808 41.416 84.224C41.416 84.64 41.272 84.992 40.984 85.28C40.712 85.568 40.376 85.712 39.976 85.712ZM41.032 87.848V101H38.848V87.848H41.032ZM51.1623 87.608C52.7623 87.608 54.0583 88.096 55.0503 89.072C56.0423 90.032 56.5383 91.424 56.5383 93.248V101H54.3783V93.56C54.3783 92.248 54.0503 91.248 53.3943 90.56C52.7383 89.856 51.8423 89.504 50.7063 89.504C49.5543 89.504 48.6343 89.864 47.9463 90.584C47.2743 91.304 46.9383 92.352 46.9383 93.728V101H44.7543V87.848H46.9383V89.72C47.3703 89.048 47.9543 88.528 48.6903 88.16C49.4423 87.792 50.2663 87.608 51.1623 87.608ZM64.7618 101.216C63.7538 101.216 62.8498 101.048 62.0498 100.712C61.2498 100.36 60.6178 99.88 60.1538 99.272C59.6898 98.648 59.4338 97.936 59.3858 97.136H61.6418C61.7058 97.792 62.0098 98.328 62.5538 98.744C63.1138 99.16 63.8418 99.368 64.7378 99.368C65.5698 99.368 66.2258 99.184 66.7058 98.816C67.1858 98.448 67.4258 97.984 67.4258 97.424C67.4258 96.848 67.1698 96.424 66.6578 96.152C66.1458 95.864 65.3538 95.584 64.2818 95.312C63.3058 95.056 62.5058 94.8 61.8818 94.544C61.2738 94.272 60.7458 93.88 60.2978 93.368C59.8658 92.84 59.6498 92.152 59.6498 91.304C59.6498 90.632 59.8498 90.016 60.2498 89.456C60.6498 88.896 61.2178 88.456 61.9538 88.136C62.6898 87.8 63.5298 87.632 64.4738 87.632C65.9298 87.632 67.1058 88 68.0018 88.736C68.8978 89.472 69.3778 90.48 69.4418 91.76H67.2578C67.2098 91.072 66.9298 90.52 66.4178 90.104C65.9218 89.688 65.2498 89.48 64.4018 89.48C63.6178 89.48 62.9938 89.648 62.5298 89.984C62.0658 90.32 61.8338 90.76 61.8338 91.304C61.8338 91.736 61.9698 92.096 62.2418 92.384C62.5298 92.656 62.8818 92.88 63.2978 93.056C63.7298 93.216 64.3218 93.4 65.0738 93.608C66.0178 93.864 66.7858 94.12 67.3778 94.376C67.9698 94.616 68.4738 94.984 68.8898 95.48C69.3218 95.976 69.5458 96.624 69.5618 97.424C69.5618 98.144 69.3618 98.792 68.9618 99.368C68.5618 99.944 67.9938 100.4 67.2578 100.736C66.5378 101.056 65.7058 101.216 64.7618 101.216ZM71.8289 94.376C71.8289 93.032 72.1009 91.856 72.6449 90.848C73.1889 89.824 73.9329 89.032 74.8769 88.472C75.8369 87.912 76.9009 87.632 78.0689 87.632C79.2209 87.632 80.2209 87.88 81.0689 88.376C81.9169 88.872 82.5489 89.496 82.9649 90.248V87.848H85.1729V101H82.9649V98.552C82.5329 99.32 81.8849 99.96 81.0209 100.472C80.1729 100.968 79.1809 101.216 78.0449 101.216C76.8769 101.216 75.8209 100.928 74.8769 100.352C73.9329 99.776 73.1889 98.968 72.6449 97.928C72.1009 96.888 71.8289 95.704 71.8289 94.376ZM82.9649 94.4C82.9649 93.408 82.7649 92.544 82.3649 91.808C81.9649 91.072 81.4209 90.512 80.7329 90.128C80.0609 89.728 79.3169 89.528 78.5009 89.528C77.6849 89.528 76.9409 89.72 76.2689 90.104C75.5969 90.488 75.0609 91.048 74.6609 91.784C74.2609 92.52 74.0609 93.384 74.0609 94.376C74.0609 95.384 74.2609 96.264 74.6609 97.016C75.0609 97.752 75.5969 98.32 76.2689 98.72C76.9409 99.104 77.6849 99.296 78.5009 99.296C79.3169 99.296 80.0609 99.104 80.7329 98.72C81.4209 98.32 81.9649 97.752 82.3649 97.016C82.7649 96.264 82.9649 95.392 82.9649 94.4ZM95.2716 87.608C96.8716 87.608 98.1676 88.096 99.1596 89.072C100.152 90.032 100.648 91.424 100.648 93.248V101H98.4876V93.56C98.4876 92.248 98.1596 91.248 97.5036 90.56C96.8476 89.856 95.9516 89.504 94.8156 89.504C93.6636 89.504 92.7436 89.864 92.0556 90.584C91.3836 91.304 91.0476 92.352 91.0476 93.728V101H88.8636V87.848H91.0476V89.72C91.4796 89.048 92.0636 88.528 92.7996 88.16C93.5516 87.792 94.3756 87.608 95.2716 87.608ZM116.215 93.92C116.215 94.336 116.191 94.776 116.143 95.24H105.631C105.711 96.536 106.151 97.552 106.951 98.288C107.767 99.008 108.751 99.368 109.903 99.368C110.847 99.368 111.631 99.152 112.255 98.72C112.895 98.272 113.343 97.68 113.599 96.944H115.951C115.599 98.208 114.895 99.24 113.839 100.04C112.783 100.824 111.471 101.216 109.903 101.216C108.655 101.216 107.535 100.936 106.543 100.376C105.567 99.816 104.799 99.024 104.239 98C103.679 96.96 103.399 95.76 103.399 94.4C103.399 93.04 103.671 91.848 104.215 90.824C104.759 89.8 105.519 89.016 106.495 88.472C107.487 87.912 108.623 87.632 109.903 87.632C111.151 87.632 112.255 87.904 113.215 88.448C114.175 88.992 114.911 89.744 115.423 90.704C115.951 91.648 116.215 92.72 116.215 93.92ZM113.959 93.464C113.959 92.632 113.775 91.92 113.407 91.328C113.039 90.72 112.535 90.264 111.895 89.96C111.271 89.64 110.575 89.48 109.807 89.48C108.703 89.48 107.759 89.832 106.975 90.536C106.207 91.24 105.767 92.216 105.655 93.464H113.959ZM121.282 83.24V101H119.098V83.24H121.282ZM136.332 87.848L128.412 107.192H126.156L128.748 100.856L123.444 87.848H125.868L129.996 98.504L134.076 87.848H136.332ZM144.11 94.376C144.11 93.032 144.382 91.856 144.926 90.848C145.47 89.824 146.214 89.032 147.158 88.472C148.118 87.912 149.182 87.632 150.35 87.632C151.502 87.632 152.502 87.88 153.35 88.376C154.198 88.872 154.83 89.496 155.246 90.248V87.848H157.454V101H155.246V98.552C154.814 99.32 154.166 99.96 153.302 100.472C152.454 100.968 151.462 101.216 150.326 101.216C149.158 101.216 148.102 100.928 147.158 100.352C146.214 99.776 145.47 98.968 144.926 97.928C144.382 96.888 144.11 95.704 144.11 94.376ZM155.246 94.4C155.246 93.408 155.046 92.544 154.646 91.808C154.246 91.072 153.702 90.512 153.014 90.128C152.342 89.728 151.598 89.528 150.782 89.528C149.966 89.528 149.222 89.72 148.55 90.104C147.878 90.488 147.342 91.048 146.942 91.784C146.542 92.52 146.342 93.384 146.342 94.376C146.342 95.384 146.542 96.264 146.942 97.016C147.342 97.752 147.878 98.32 148.55 98.72C149.222 99.104 149.966 99.296 150.782 99.296C151.598 99.296 152.342 99.104 153.014 98.72C153.702 98.32 154.246 97.752 154.646 97.016C155.046 96.264 155.246 95.392 155.246 94.4ZM166.497 89.648H163.737V101H161.553V89.648H159.849V87.848H161.553V86.912C161.553 85.44 161.929 84.368 162.681 83.696C163.449 83.008 164.673 82.664 166.353 82.664V84.488C165.393 84.488 164.713 84.68 164.313 85.064C163.929 85.432 163.737 86.048 163.737 86.912V87.848H166.497V89.648ZM174.395 89.648H171.635V101H169.451V89.648H167.747V87.848H169.451V86.912C169.451 85.44 169.827 84.368 170.579 83.696C171.347 83.008 172.571 82.664 174.251 82.664V84.488C173.291 84.488 172.611 84.68 172.211 85.064C171.827 85.432 171.635 86.048 171.635 86.912V87.848H174.395V89.648ZM182.678 101.216C181.446 101.216 180.326 100.936 179.318 100.376C178.326 99.816 177.542 99.024 176.966 98C176.406 96.96 176.126 95.76 176.126 94.4C176.126 93.056 176.414 91.872 176.99 90.848C177.582 89.808 178.382 89.016 179.39 88.472C180.398 87.912 181.526 87.632 182.774 87.632C184.022 87.632 185.15 87.912 186.158 88.472C187.166 89.016 187.958 89.8 188.534 90.824C189.126 91.848 189.422 93.04 189.422 94.4C189.422 95.76 189.118 96.96 188.51 98C187.918 99.024 187.11 99.816 186.086 100.376C185.062 100.936 183.926 101.216 182.678 101.216ZM182.678 99.296C183.462 99.296 184.198 99.112 184.886 98.744C185.574 98.376 186.126 97.824 186.542 97.088C186.974 96.352 187.19 95.456 187.19 94.4C187.19 93.344 186.982 92.448 186.566 91.712C186.15 90.976 185.606 90.432 184.934 90.08C184.262 89.712 183.534 89.528 182.75 89.528C181.95 89.528 181.214 89.712 180.542 90.08C179.886 90.432 179.358 90.976 178.958 91.712C178.558 92.448 178.358 93.344 178.358 94.4C178.358 95.472 178.55 96.376 178.934 97.112C179.334 97.848 179.862 98.4 180.518 98.768C181.174 99.12 181.894 99.296 182.678 99.296ZM194.477 89.984C194.861 89.232 195.405 88.648 196.109 88.232C196.829 87.816 197.701 87.608 198.725 87.608V89.864H198.149C195.701 89.864 194.477 91.192 194.477 93.848V101H192.293V87.848H194.477V89.984ZM200.43 94.376C200.43 93.032 200.702 91.856 201.246 90.848C201.79 89.824 202.534 89.032 203.478 88.472C204.438 87.912 205.51 87.632 206.694 87.632C207.718 87.632 208.67 87.872 209.55 88.352C210.43 88.816 211.102 89.432 211.566 90.2V83.24H213.774V101H211.566V98.528C211.134 99.312 210.494 99.96 209.646 100.472C208.798 100.968 207.806 101.216 206.67 101.216C205.502 101.216 204.438 100.928 203.478 100.352C202.534 99.776 201.79 98.968 201.246 97.928C200.702 96.888 200.43 95.704 200.43 94.376ZM211.566 94.4C211.566 93.408 211.366 92.544 210.966 91.808C210.566 91.072 210.022 90.512 209.334 90.128C208.662 89.728 207.918 89.528 207.102 89.528C206.286 89.528 205.542 89.72 204.87 90.104C204.198 90.488 203.662 91.048 203.262 91.784C202.862 92.52 202.662 93.384 202.662 94.376C202.662 95.384 202.862 96.264 203.262 97.016C203.662 97.752 204.198 98.32 204.87 98.72C205.542 99.104 206.286 99.296 207.102 99.296C207.918 99.296 208.662 99.104 209.334 98.72C210.022 98.32 210.566 97.752 210.966 97.016C211.366 96.264 211.566 95.392 211.566 94.4ZM216.649 94.376C216.649 93.032 216.921 91.856 217.465 90.848C218.009 89.824 218.753 89.032 219.697 88.472C220.657 87.912 221.721 87.632 222.889 87.632C224.041 87.632 225.041 87.88 225.889 88.376C226.737 88.872 227.369 89.496 227.785 90.248V87.848H229.993V101H227.785V98.552C227.353 99.32 226.705 99.96 225.841 100.472C224.993 100.968 224.001 101.216 222.865 101.216C221.697 101.216 220.641 100.928 219.697 100.352C218.753 99.776 218.009 98.968 217.465 97.928C216.921 96.888 216.649 95.704 216.649 94.376ZM227.785 94.4C227.785 93.408 227.585 92.544 227.185 91.808C226.785 91.072 226.241 90.512 225.553 90.128C224.881 89.728 224.137 89.528 223.321 89.528C222.505 89.528 221.761 89.72 221.089 90.104C220.417 90.488 219.881 91.048 219.481 91.784C219.081 92.52 218.881 93.384 218.881 94.376C218.881 95.384 219.081 96.264 219.481 97.016C219.881 97.752 220.417 98.32 221.089 98.72C221.761 99.104 222.505 99.296 223.321 99.296C224.137 99.296 224.881 99.104 225.553 98.72C226.241 98.32 226.785 97.752 227.185 97.016C227.585 96.264 227.785 95.392 227.785 94.4ZM235.868 90.296C236.316 89.512 236.972 88.872 237.836 88.376C238.7 87.88 239.684 87.632 240.788 87.632C241.972 87.632 243.036 87.912 243.98 88.472C244.924 89.032 245.668 89.824 246.212 90.848C246.756 91.856 247.028 93.032 247.028 94.376C247.028 95.704 246.756 96.888 246.212 97.928C245.668 98.968 244.916 99.776 243.956 100.352C243.012 100.928 241.956 101.216 240.788 101.216C239.652 101.216 238.652 100.968 237.788 100.472C236.94 99.976 236.3 99.344 235.868 98.576V101H233.684V83.24H235.868V90.296ZM244.796 94.376C244.796 93.384 244.596 92.52 244.196 91.784C243.796 91.048 243.252 90.488 242.564 90.104C241.892 89.72 241.148 89.528 240.332 89.528C239.532 89.528 238.788 89.728 238.1 90.128C237.428 90.512 236.884 91.08 236.468 91.832C236.068 92.568 235.868 93.424 235.868 94.4C235.868 95.392 236.068 96.264 236.468 97.016C236.884 97.752 237.428 98.32 238.1 98.72C238.788 99.104 239.532 99.296 240.332 99.296C241.148 99.296 241.892 99.104 242.564 98.72C243.252 98.32 243.796 97.752 244.196 97.016C244.596 96.264 244.796 95.384 244.796 94.376ZM252.087 83.24V101H249.903V83.24H252.087ZM267.809 93.92C267.809 94.336 267.785 94.776 267.737 95.24H257.225C257.305 96.536 257.745 97.552 258.545 98.288C259.361 99.008 260.345 99.368 261.497 99.368C262.441 99.368 263.225 99.152 263.849 98.72C264.489 98.272 264.937 97.68 265.193 96.944H267.545C267.193 98.208 266.489 99.24 265.433 100.04C264.377 100.824 263.065 101.216 261.497 101.216C260.249 101.216 259.129 100.936 258.137 100.376C257.161 99.816 256.393 99.024 255.833 98C255.273 96.96 254.993 95.76 254.993 94.4C254.993 93.04 255.265 91.848 255.809 90.824C256.353 89.8 257.113 89.016 258.089 88.472C259.081 87.912 260.217 87.632 261.497 87.632C262.745 87.632 263.849 87.904 264.809 88.448C265.769 88.992 266.505 89.744 267.017 90.704C267.545 91.648 267.809 92.72 267.809 93.92ZM265.553 93.464C265.553 92.632 265.369 91.92 265.001 91.328C264.633 90.72 264.129 90.264 263.489 89.96C262.865 89.64 262.169 89.48 261.401 89.48C260.297 89.48 259.353 89.832 258.569 90.536C257.801 91.24 257.361 92.216 257.249 93.464H265.553Z" fill="#EDFCFF"/>
<rect x="4" width="14" height="114" fill="#529AB2"/>
</g>
<defs>
<filter id="filter0_d_12_5" x="0" y="0" width="357.132" height="122" filterUnits="userSpaceOnUse" color-interpolation-filters="sRGB">
<feFlood flood-opacity="0" result="BackgroundImageFix"/>
<feColorMatrix in="SourceAlpha" type="matrix" values="0 0 0 0 0 0 0 0 0 0 0 0 0 0 0 0 0 0 127 0" result="hardAlpha"/>
<feOffset dy="4"/>
<feGaussianBlur stdDeviation="2"/>
<feComposite in2="hardAlpha" operator="out"/>
<feColorMatrix type="matrix" values="0 0 0 0 0 0 0 0 0 0 0 0 0 0 0 0 0 0 0.25 0"/>
<feBlend mode="normal" in2="BackgroundImageFix" result="effect1_dropShadow_12_5"/>
<feBlend mode="normal" in="SourceGraphic" in2="effect1_dropShadow_12_5" result="shape"/>
</filter>
</defs>
</svg>
